Run_40002
nRows=4
nColumns=164

# SIMM Motion File Header:
name Run_40002
datacolumns 164
datarows 4
otherdata 1
range 1.50000000 1.53000000
endheader
time	pelvis_tilt	pelvis_list	pelvis_rotation	pelvis_tx	pelvis_ty	pelvis_tz	hip_flexion_r	hip_adduction_r	hip_rotation_r	knee_angle_r	ankle_angle_r	hip_flexion_l	hip_adduction_l	hip_rotation_l	knee_angle_l	ankle_angle_l	lumbar_extension	lumbar_bending	lumbar_rotation	arm_flex_r	arm_add_r	arm_rot_r	elbow_flex_r	pro_sup_r	arm_flex_l	arm_add_l	arm_rot_l	elbow_flex_l	pro_sup_l	subtalar_angle_r	mtp_angle_r	subtalar_angle_l	mtp_angle_l	wrist_flex_r	wrist_dev_r	wrist_flex_l	wrist_dev_l	LASI_tx	LASI_ty	LASI_tz	RASI_tx	RASI_ty	RASI_tz	LPSI_tx	LPSI_ty	LPSI_tz	RPSI_tx	RPSI_ty	RPSI_tz	RTH1_tx	RTH1_ty	RTH1_tz	RTH2_tx	RTH2_ty	RTH2_tz	RTH3_tx	RTH3_ty	RTH3_tz	LTH1_tx	LTH1_ty	LTH1_tz	LTH2_tx	LTH2_ty	LTH2_tz	LTH3_tx	LTH3_ty	LTH3_tz	RTB1_tx	RTB1_ty	RTB1_tz	RTB2_tx	RTB2_ty	RTB2_tz	RTB3_tx	RTB3_ty	RTB3_tz	LTB1_tx	LTB1_ty	LTB1_tz	LTB2_tx	LTB2_ty	LTB2_tz	LTB3_tx	LTB3_ty	LTB3_tz	RCAL_tx	RCAL_ty	RCAL_tz	RTOE_tx	RTOE_ty	RTOE_tz	RMT5_tx	RMT5_ty	RMT5_tz	LCAL_tx	LCAL_ty	LCAL_tz	LTOE_tx	LTOE_ty	LTOE_tz	LMT5_tx	LMT5_ty	LMT5_tz	LACR_tx	LACR_ty	LACR_tz	RACR_tx	RACR_ty	RACR_tz	CLAV_tx	CLAV_ty	CLAV_tz	C7_tx	C7_ty	C7_tz	RUA1_tx	RUA1_ty	RUA1_tz	RUA2_tx	RUA2_ty	RUA2_tz	RUA3_tx	RUA3_ty	RUA3_tz	RLEL_tx	RLEL_ty	RLEL_tz	RMEL_tx	RMEL_ty	RMEL_tz	LUA1_tx	LUA1_ty	LUA1_tz	LUA2_tx	LUA2_ty	LUA2_tz	LUA3_tx	LUA3_ty	LUA3_tz	LLEL_tx	LLEL_ty	LLEL_tz	LMEL_tx	LMEL_ty	LMEL_tz	RFAsuperior_tx	RFAsuperior_ty	RFAsuperior_tz	RFAradius_tx	RFAradius_ty	RFAradius_tz	RFAulna_tx	RFAulna_ty	RFAulna_tz	LFAsuperior_tx	LFAsuperior_ty	LFAsuperior_tz	LFAradius_tx	LFAradius_ty	LFAradius_tz	LFAulna_tx	LFAulna_ty	LFAulna_tz
      1.50000000	    -15.08783290	      0.56987899	     -1.73920072	      0.99464246	      1.05144339	     -0.35232076	     42.88286173	      1.66938143	      1.36502690	    -23.93000624	      3.51421767	    -10.15821146	      7.34872697	      7.98562412	    -27.57521565	    -25.94014960	      6.18726368	      2.86479245	    -10.99748108	    -52.15350099	    -20.89750657	    -18.69640381	    111.86483577	    106.64085729	    -29.53222802	    -13.31566307	     -8.69969557	    138.60877634	     96.98850965	      0.00000000	      0.00000000	      0.00000000	      0.00000000	      0.00000000	      0.00000000	      0.00000000	      0.00000000	      1.02097859	      1.09460610	     -0.50041075	      1.00079602	      1.09113822	     -0.21996228	      0.86919381	      1.15321797	     -0.41724821	      0.85263034	      1.15116648	     -0.30336085	      0.94114523	      0.98306918	     -0.16435212	      0.95589524	      0.83039175	     -0.19626764	      1.06016160	      0.71444140	     -0.20280785	      0.93524899	      0.94810797	     -0.52068485	      0.79570548	      0.84689732	     -0.47759501	      0.78245227	      0.70232513	     -0.46548025	      1.17450080	      0.47994552	     -0.26579728	      1.09988362	      0.42684260	     -0.19659831	      1.16277388	      0.29155370	     -0.27994082	      0.67630932	      0.49233214	     -0.39198300	      0.54517701	      0.48093181	     -0.45509573	      0.49343204	      0.37188850	     -0.39211722	      1.05955539	      0.14305278	     -0.27793588	      1.29625236	      0.17055471	     -0.31786980	      1.26337416	      0.12592198	     -0.22446021	      0.33699819	      0.40536244	     -0.39929863	      0.37740505	      0.18521067	     -0.32048764	      0.33125840	      0.18896293	     -0.42265722	      1.00532236	      1.58899997	     -0.48903594	      0.96451780	      1.56586989	     -0.17448323	      1.04124521	      1.53222728	     -0.29090065	      0.92709337	      1.59635446	     -0.34388511	      0.82266403	      1.52214602	     -0.15126220	      0.83144210	      1.46107029	     -0.09840684	      0.72878044	      1.43079217	     -0.08340971	      0.66972506	      1.38794413	     -0.06890481	      0.68295066	      1.35305613	     -0.15272415	      0.92119518	      1.49475339	     -0.56504287	      0.95515152	      1.42247584	     -0.58973424	      0.88774585	      1.35970233	     -0.63160745	      0.87882101	      1.29114221	     -0.65585551	      0.84874469	      1.26649428	     -0.57274467	      0.73742267	      1.30527696	     -0.04662375	      0.88830260	      1.21854695	     -0.09781715	      0.84307796	      1.18088262	     -0.06203853	      0.95402997	      1.27090235	     -0.62546531	      1.07686401	      1.34319879	     -0.50396171	      1.10190985	      1.27641880	     -0.51947001
      1.51000000	    -14.48877478	      0.49864861	     -1.87003690	      0.99463546	      1.05080246	     -0.35240548	     39.98899377	      2.21265689	      2.91565720	    -17.29494352	      2.73754996	     -9.56976833	      7.76074269	      8.24485354	    -33.30071200	    -24.05786717	      5.38045779	      3.15729114	    -10.68524809	    -51.97908637	    -20.70572122	    -19.05393294	    112.62795597	    106.97685337	    -29.58818211	    -13.55477082	     -7.88948410	    137.81421021	     96.24119820	      0.00000000	      0.00000000	      0.00000000	      0.00000000	      0.00000000	      0.00000000	      0.00000000	      0.00000000	      1.01972501	      1.09244815	     -0.50061094	      1.00024972	      1.09090811	     -0.22076399	      0.86794011	      1.15123794	     -0.41731454	      0.85163521	      1.14863478	     -0.30371937	      0.94081406	      0.98154404	     -0.16473640	      0.95074033	      0.82694734	     -0.19624501	      1.04955610	      0.70658613	     -0.20232096	      0.93939587	      0.94521603	     -0.51955938	      0.80083289	      0.84202057	     -0.47916341	      0.79066422	      0.69671860	     -0.46518354	      1.17157420	      0.47565973	     -0.26770607	      1.10029237	      0.41781733	     -0.19914517	      1.17198606	      0.28716164	     -0.28304937	      0.67698365	      0.49125415	     -0.39171636	      0.54553598	      0.49003662	     -0.45644050	      0.48510738	      0.38556813	     -0.39429947	      1.07892728	      0.13225565	     -0.28037423	      1.31151431	      0.17684124	     -0.32871455	      1.28530575	      0.12691708	     -0.23469131	      0.32969791	      0.42969610	     -0.40412447	      0.35908076	      0.20859884	     -0.32269568	      0.31369063	      0.21363458	     -0.42557492	      1.00511901	      1.58826044	     -0.48758829	      0.96513506	      1.56444678	     -0.17321090	      1.04111158	      1.53104898	     -0.28999882	      0.92680047	      1.59563480	     -0.34221429	      0.82297342	      1.52072250	     -0.14974461	      0.83194232	      1.45934986	     -0.09756589	      0.72910233	      1.42900762	     -0.08292877	      0.67039921	      1.38525948	     -0.06880556	      0.68410528	      1.35041936	     -0.15259484	      0.92112268	      1.49475913	     -0.56429073	      0.95488125	      1.42257408	     -0.58929528	      0.88768347	      1.36011741	     -0.63186973	      0.87809805	      1.29182822	     -0.65615211	      0.84681139	      1.26709083	     -0.57341154	      0.73922747	      1.30356345	     -0.04653939	      0.89112567	      1.21850638	     -0.09782495	      0.84643513	      1.18041903	     -0.06169586	      0.95277490	      1.26937147	     -0.62557287	      1.07662051	      1.33846232	     -0.50288272	      1.09945718	      1.27108986	     -0.51799270
      1.52000000	    -13.85265437	      0.22068576	     -1.96665460	      0.99462277	      1.04906116	     -0.35252798	     37.33929991	      2.74812618	      3.91511376	    -12.02181239	      2.01403433	     -8.57151223	      7.68963527	      7.32071626	    -39.67330978	    -22.62756814	      4.51265406	      3.68273240	    -10.30708602	    -51.64572625	    -20.64690410	    -19.33078650	    113.29769614	    107.31135833	    -29.65999311	    -13.73009232	     -7.09011082	    136.67182007	     95.95913136	      0.00000000	      0.00000000	      0.00000000	      0.00000000	      0.00000000	      0.00000000	      0.00000000	      0.00000000	      1.01843922	      1.08902467	     -0.50130323	      0.99979103	      1.08992044	     -0.22174458	      0.86665422	      1.14799240	     -0.41787298	      0.85038400	      1.14548591	     -0.30430682	      0.94041428	      0.97906534	     -0.16559056	      0.94548742	      0.82296127	     -0.19589724	      1.04011262	      0.69857331	     -0.20143637	      0.94262064	      0.94155548	     -0.51867448	      0.80594310	      0.83583580	     -0.47994762	      0.79874983	      0.69025219	     -0.46449237	      1.16759568	      0.47113995	     -0.26935246	      1.09841481	      0.40965741	     -0.20217027	      1.17699200	      0.28322560	     -0.28634131	      0.68024477	      0.48868423	     -0.39242328	      0.54868444	      0.49888452	     -0.45733220	      0.48031863	      0.39885502	     -0.39708726	      1.09147858	      0.12389705	     -0.28415289	      1.32042865	      0.18067615	     -0.33708252	      1.29899524	      0.12743744	     -0.24340043	      0.32788214	      0.45483522	     -0.40678165	      0.34403737	      0.23130897	     -0.32821303	      0.29796519	      0.24048198	     -0.43050920	      1.00463983	      1.58625746	     -0.48610112	      0.96603599	      1.56179389	     -0.17206103	      1.04100199	      1.52851637	     -0.28947522	      0.92643410	      1.59389441	     -0.34050856	      0.82383785	      1.51790375	     -0.14756080	      0.83308019	      1.45601664	     -0.09633465	      0.73044578	      1.42516706	     -0.08159470	      0.67213551	      1.38060726	     -0.06754853	      0.68606366	      1.34588453	     -0.15140677	      0.92047652	      1.49379196	     -0.56339956	      0.95403518	      1.42164009	     -0.58863600	      0.88694150	      1.35956222	     -0.63172341	      0.87667472	      1.29167333	     -0.65623825	      0.84417747	      1.26684656	     -0.57387169	      0.74226576	      1.29996465	     -0.04562307	      0.89497563	      1.21663178	     -0.09762432	      0.85095805	      1.17812902	     -0.06096443	      0.95065533	      1.26642374	     -0.62577001	      1.07610663	      1.33098351	     -0.50184015	      1.09653972	      1.26318030	     -0.51737847
      1.53000000	    -13.33353119	     -0.18976684	     -2.01307532	      0.99435179	      1.04603515	     -0.35246720	     35.33912117	      3.32848578	      4.01647177	     -8.60695654	      1.65469167	     -7.07620198	      7.12203458	      5.70998478	    -46.51598160	    -21.39402580	      3.75911928	      4.32422058	     -9.89098932	    -51.11531021	    -20.70931238	    -19.46707185	    113.82497359	    107.58730884	    -29.80418107	    -13.88079300	     -6.39081224	    135.28399587	     96.28131007	      0.00000000	      0.00000000	      0.00000000	      0.00000000	      0.00000000	      0.00000000	      0.00000000	      0.00000000	      1.01721295	      1.08452069	     -0.50211914	      0.99912126	      1.08782591	     -0.22264558	      0.86542788	      1.14366635	     -0.41855504	      0.84892712	      1.14176836	     -0.30492266	      0.93945473	      0.97494724	     -0.16696572	      0.94066364	      0.81835957	     -0.19479067	      1.03287767	      0.69079227	     -0.20031812	      0.94445675	      0.93746684	     -0.51816748	      0.81080216	      0.82847330	     -0.48015574	      0.80678093	      0.68298106	     -0.46419945	      1.16291687	      0.46604508	     -0.27070081	      1.09456370	      0.40193535	     -0.20541259	      1.17776863	      0.27889481	     -0.28996528	      0.68606630	      0.48486109	     -0.39408232	      0.55486018	      0.50716278	     -0.45784614	      0.47926558	      0.41162006	     -0.40006365	      1.09686743	      0.11659627	     -0.28971466	      1.32361976	      0.18147097	     -0.34236433	      1.30450129	      0.12562102	     -0.24998960	      0.33125887	      0.47996718	     -0.40683216	      0.33272481	      0.25312033	     -0.33704102	      0.28602570	      0.26938406	     -0.43783750	      1.00384748	      1.58310781	     -0.48466326	      0.96710266	      1.55785166	     -0.17108161	      1.04100686	      1.52470304	     -0.28921902	      0.92600524	      1.59104042	     -0.33892441	      0.82514710	      1.51362589	     -0.14482418	      0.83478886	      1.45106742	     -0.09471047	      0.73274481	      1.41922390	     -0.07932335	      0.67489977	      1.37393056	     -0.06511383	      0.68875602	      1.33944278	     -0.14914448	      0.91909233	      1.49186016	     -0.56231987	      0.95250864	      1.41965674	     -0.58783498	      0.88537614	      1.35809567	     -0.63126166	      0.87447747	      1.29062339	     -0.65613834	      0.84070186	      1.26567788	     -0.57414723	      0.74647381	      1.29445864	     -0.04383724	      0.89980151	      1.21298665	     -0.09712426	      0.85659027	      1.17404315	     -0.05984944	      0.94761248	      1.26222532	     -0.62611617	      1.07499426	      1.32111379	     -0.50084661	      1.09308142	      1.25305727	     -0.51778566
